<?xml version="1.0" encoding="UTF-8" standalone="no"?>
<svg
   xmlns:dc="http://purl.org/dc/elements/1.1/"
   xmlns:cc="http://creativecommons.org/ns#"
   xmlns:rdf="http://www.w3.org/1999/02/22-rdf-syntax-ns#"
   xmlns:svg="http://www.w3.org/2000/svg"
   xmlns="http://www.w3.org/2000/svg"
   xmlns:sodipodi="http://sodipodi.sourceforge.net/DTD/sodipodi-0.dtd"
   xmlns:inkscape="http://www.inkscape.org/namespaces/inkscape"
   inkscape:version="1.0 (4035a4fb49, 2020-05-01)"
   sodipodi:docname="ipe-logo-white.svg"
   viewBox="0 0 563.16615 343.7911"
   version="1.1"
   width="158.938mm"
   height="97.02549mm"
   id="svg2">
  <defs
     id="defs17" />
  <sodipodi:namedview
     inkscape:current-layer="g9"
     inkscape:window-maximized="0"
     inkscape:window-y="45"
     inkscape:window-x="0"
     inkscape:cy="183.35526"
     inkscape:cx="261.12798"
     inkscape:zoom="1.9193936"
     showgrid="false"
     id="namedview15"
     inkscape:window-height="1035"
     inkscape:window-width="1920"
     inkscape:pageshadow="2"
     inkscape:pageopacity="0"
     guidetolerance="10"
     gridtolerance="10"
     objecttolerance="10"
     borderopacity="1"
     bordercolor="#666666"
     pagecolor="#ffffff" />
  <metadata
     id="metadata7">
    <rdf:RDF>
      <cc:Work
         rdf:about="">
        <dc:format>image/svg+xml</dc:format>
        <dc:type
           rdf:resource="http://purl.org/dc/dcmitype/StillImage" />
        <dc:title></dc:title>
      </cc:Work>
    </rdf:RDF>
  </metadata>
  <g
     transform="translate(-89.52686 -158.5942)"
     id="layer1">
    <path
       style="fill:#ffffff;fill-opacity:1"
       d="m316.2099 406.6523v60.29999h301.05v-60.29999h-301.05"
       id="path4154" />
    <path
       style="fill:#ffffff;fill-opacity:1"
       d="m475.056 254.3691c-4.49892-22.75466-15.56674-43.69237-31.83552-60.22539l-0.13115-0.11642h174.1706v60.29999m-142.2 0h142.2"
       id="path4162" />
    <path
       d="m124.9599 194.0273v60.29998h60.075v-60.29998h-60.075"
       fill="#009682"
       id="path4164" />
    <g
       id="g9">
      <path
         style="fill:#ffffff;fill-opacity:1"
         d="m475.0599 300.4523h142.2v60.30007h-173.925l-0.13815-0.0926c16.27348-16.52839 27.34721-37.46293 31.85261-60.21627"
         id="path4170" />
      <path
         style="fill:#ffffff;fill-opacity:1"
         d="m124.9599 300.4523v166.5h60.075v-166.5h-60.075"
         id="path4172" />
      <path
         style="fill:#ffffff;fill-opacity:1"
         d="m220.5849 466.9523h60.07499v-106.2h78.075-0.12084c46.03828 0.005 83.36402-37.31189 83.37084-83.35016 0.007-46.03829-37.30789-83.36582-83.34618-83.37484l0.0962-0.00001h-138.15v60.29998h138.15l-0.108-0.00005c12.73664 0.002 23.05998 10.32928 23.05798 23.06591s-10.32817 23.06009-23.06481 23.05909l0.11483 0.00001h-138.15v166.5"
         id="path4186" />
    </g>
    <text
       fill="#000000"
       font-family="ISOCPEUR"
       x="95.934929"
       y="1018.4273"
       font-size="6.75px"
       id="text4328"><tspan
         x="95.934929"
         y="1018.4273"
         id="tspan4330" /></text>
  </g>
</svg>
